<?xml version="1.0" encoding="iso-8859-1"?>
<!-- Generator: Adobe Illustrator 16.0.0, SVG Export Plug-In . SVG Version: 6.00 Build 0)  -->
<!DOCTYPE svg PUBLIC "-//W3C//DTD SVG 1.1//EN" "http://www.w3.org/Graphics/SVG/1.1/DTD/svg11.dtd">
<svg xmlns="http://www.w3.org/2000/svg" xmlns:xlink="http://www.w3.org/1999/xlink" version="1.1" id="Capa_1" x="0px" y="0px" width="512px" height="512px" viewBox="0 0 612 612" style="enable-background:new 0 0 612 612;" xml:space="preserve">
<g>
	<g id="web_-_browser_tab">
		<g>
			<path d="M459,114.75H38.25C17.136,114.75,0,131.886,0,153v420.75C0,594.864,17.136,612,38.25,612H459     c21.114,0,38.25-17.136,38.25-38.25V153C497.25,131.886,480.114,114.75,459,114.75z M459,554.625     c0,10.596-8.568,19.125-19.125,19.125h-382.5c-10.557,0-19.125-8.568-19.125-19.125v-382.5c0-10.557,8.568-19.125,19.125-19.125     h382.5c10.557,0,19.125,8.568,19.125,19.125V554.625z M573.75,0h-382.5C170.136,0,153,17.136,153,38.25V76.5h38.25V57.375     c0-10.557,8.568-19.125,19.125-19.125h344.25c10.557,0,19.125,8.568,19.125,19.125v344.25c0,10.557-8.568,19.125-19.125,19.125     H535.5V459h38.25c21.114,0,38.25-17.136,38.25-38.25V38.25C612,17.136,594.864,0,573.75,0z" fill="#006DF0"/>
		</g>
	</g>
</g>
<g>
</g>
<g>
</g>
<g>
</g>
<g>
</g>
<g>
</g>
<g>
</g>
<g>
</g>
<g>
</g>
<g>
</g>
<g>
</g>
<g>
</g>
<g>
</g>
<g>
</g>
<g>
</g>
<g>
</g>
</svg>
